/* XPM */
static char *_28d514b51c144a6fd847e1b7d2d6875[] = {
/* columns rows colors chars-per-pixel */
"32 32 256 2 ",
"   c #040100",
".  c #0A0201",
"X  c #0C0C0C",
"o  c #090805",
"O  c #130202",
"+  c #1C0000",
"@  c #18000B",
"#  c #120B0C",
"$  c #1D0E0E",
"%  c #031909",
"&  c #13110F",
"*  c #19120D",
"=  c #1A0F12",
"-  c #1F0C18",
";  c #001A14",
":  c #051F18",
">  c #141213",
",  c #1C1213",
"<  c #1E1916",
"1  c #1A151D",
"2  c #1C1B1C",
"3  c #15151A",
"4  c #290A09",
"5  c #310503",
"6  c #28091A",
"7  c #221514",
"8  c #211A16",
"9  c #23151B",
"0  c #23191C",
"q  c #291B1B",
"w  c #2A1411",
"e  c #002C0F",
"r  c #002114",
"t  c #00221B",
"y  c #12391F",
"u  c #132E17",
"i  c #25211D",
"p  c #28231E",
"a  c #181B21",
"s  c #221D23",
"d  c #261B26",
"f  c #391C21",
"g  c #002B21",
"h  c #023F24",
"j  c #153626",
"k  c #1E2730",
"l  c #1F2831",
"z  c #133534",
"x  c #242224",
"c  c #2B2424",
"v  c #24232B",
"b  c #2B262B",
"n  c #2D2C2C",
"m  c #2F2B27",
"M  c #302D2E",
"N  c #302824",
"B  c #36312E",
"V  c #3A312E",
"C  c #232933",
"Z  c #2F2C33",
"A  c #232732",
"S  c #302E32",
"D  c #2B323B",
"F  c #333333",
"G  c #3B353C",
"H  c #33323A",
"J  c #00501A",
"K  c #005D3D",
"L  c #0E4E2E",
"P  c #00693F",
"I  c #106732",
"U  c #03743B",
"Y  c #342C40",
"T  c #2C3949",
"R  c #4B3964",
"E  c #004C45",
"W  c #005845",
"Q  c #045B55",
"!  c #174343",
"~  c #344556",
"^  c #02625D",
"/  c #1F605E",
"(  c #394F68",
")  c #026663",
"_  c #106661",
"`  c #08726A",
"'  c #0A7375",
"]  c #44434C",
"[  c #49464E",
"{  c #4C515D",
"}  c #4E4557",
"|  c #494067",
" . c #55406B",
".. c #48576A",
"X. c #525661",
"o. c #474C72",
"O. c #5B4A72",
"+. c #485778",
"@. c #59577A",
"#. c #644C72",
"$. c #4C667A",
"%. c #486478",
"&. c #52697C",
"*. c #457A7D",
"=. c #0B923E",
"-. c #1B8338",
";. c #10924D",
":. c #288B45",
">. c #2D924D",
",. c #339B59",
"<. c #07A85A",
"1. c #07847D",
"2. c #009676",
"3. c #16937B",
"4. c #3C867E",
"5. c #10B86F",
"6. c #2AAD60",
"7. c #3AA76A",
"8. c #22B673",
"9. c #4F8F78",
"0. c #53937E",
"q. c #41957B",
"w. c #4AAC79",
"e. c #13C36F",
"r. c #3B668C",
"t. c #35789C",
"y. c #3D7DA0",
"u. c #485780",
"i. c #4C6B82",
"p. c #43678F",
"a. c #516E85",
"s. c #4E7086",
"d. c #56748C",
"f. c #587187",
"g. c #5B6C90",
"h. c #4E7A96",
"j. c #5C7C93",
"k. c #5A7998",
"l. c #726B8B",
"z. c #70728E",
"x. c #796F90",
"c. c #607C91",
"v. c #757B9A",
"b. c #69678D",
"n. c #657FA1",
"m. c #0A8486",
"M. c #108789",
"N. c #128C8F",
"B. c #06938F",
"V. c #168D92",
"C. c #019592",
"Z. c #16939A",
"A. c #109190",
"S. c #1AB886",
"D. c #3EAD82",
"F. c #2AAE91",
"G. c #169BA1",
"H. c #2F95B4",
"J. c #3E98B6",
"K. c #348AAA",
"L. c #07BBBE",
"P. c #10ABAF",
"I. c #22A3AF",
"U. c #23BBAB",
"Y. c #28A8B5",
"T. c #569587",
"R. c #5E829C",
"E. c #669A8E",
"W. c #6D8C90",
"Q. c #70829A",
"!. c #41AD9C",
"~. c #5585A1",
"^. c #5D89A3",
"/. c #5C8DAA",
"(. c #5688A7",
"). c #4D9FA8",
"_. c #5C90AC",
"`. c #449EBC",
"'. c #5E99BC",
"]. c #5A96B6",
"[. c #6287A0",
"{. c #638CA5",
"}. c #6A8CA6",
"|. c #678AA4",
" X c #6291AB",
".X c #6D92A7",
"XX c #6496B5",
"oX c #6B94B3",
"OX c #649EBD",
"+X c #6898B7",
"@X c #719DB9",
"#X c #729AB3",
"$X c #4FB3AF",
"%X c #57A7BD",
"&X c #64A4BD",
"*X c #75A4BD",
"=X c #11C99C",
"-X c #0ED093",
";X c #1AD092",
":X c #1AB7C6",
">X c #2DACC2",
",X c #3BBAC9",
"<X c #3CACC4",
"1X c #629FC0",
"2X c #59A9C2",
"3X c #47B0C7",
"4X c #64A5C4",
"5X c #6BA5C4",
"6X c #6BA9C7",
"7X c #73A9C8",
"8X c #6FB0CD",
"9X c #6DAED5",
"0X c #75B5D5",
"qX c #0CCDD5",
"wX c #11C8D1",
"eX c #7CC4E0",
"rX c #90B0CC",
"tX c #8BB4D4",
"yX c #86B9D9",
"uX c #92B3D1",
"iX c #91BAD4",
"pX c #94BCD9",
"aX c #8EA9C3",
"sX c #91BFE2",
"dX c #96C5DE",
"fX c #8BC4E4",
"gX c #8CCCEB",
"hX c #86C7E6",
"jX c #95CCE3",
"kX c #99CEE4",
"lX c #95C8EB",
"zX c #8CD2ED",
"xX c #94D4EC",
"cX c #97D4EA",
"vX c #8CCEF4",
"bX c #88C9F0",
"nX c #96CCF4",
"mX c #8CD3F3",
"MX c #8CDAF7",
"NX c #8FDFFB",
"BX c #91D6F3",
"VX c #93DBF6",
"CX c #93DDFA",
"ZX c #9ED7F3",
"AX c #A1DFF9",
"SX c #94E3FC",
"DX c #9BE6FF",
"FX c #95EAFF",
"GX c #9BECFE",
"HX c #9AE1F5",
"JX c #9EF3FD",
"KX c #9DFAFF",
"LX c #A3FCFF",
"PX c #A4FAFF",
"IX c #A1E4F8",
"UX c None",
/* pixels */
"UXUXUXUXUXUXUXUXUXUXUXUXUXUXUXUXUXUXUXUXUXUXUXUXUXUXUXUXUXUXUXUX",
"UXUXUXUXUXUXUXUXUXUXUXUXg.(.%X`.J.%X(.k.UXUXUXUXUXUXUXUXUXUXUXUX",
"UXUXUXUXUXUXUXUXUXo.K.>XY.G.V.M.M.N.Z.I.Y.`.+.UXUXUXUXUXUXUXUXUX",
"UXUXUXUXUXUXUXR K.:XA._ z x w 4 4 4 , z Q m.Y.H.| UXUXUXUXUXUXUX",
"UXUXUXUXUXUXu.:XP./ f 5 q M S M n m x < + 4 ! B.:Xp.UXUXUXUXUXUX",
"UXUXUXUXUXp.qX` + } 4X{ N F F F Z m i , Z ]...O E wXy.UXUXUXUXUX",
"UXUXUXUXr.qX! + 7 &.hX6X{ V F F F n < S ].bXa.# O : L.t.UXUXUXUX",
"UXUXUXu.qXh + a < &.yXyX0XX.V F n i H ].tXtXi.# # O ; L.r.UXUXUX",
"UXUXO.:XQ . # & * ..gXiXfX0X{ N p G XXyXaXhX%.. . o . g :X+.UXUX",
"UXUX`.C.@ C C D x c R.zXtXgX8X] G XXmXiXgX^.1 # k k A + ) <XUXUX",
"UXb.:Xt Y 0X0X7X_.S 8 c.BXkXzX7XXXzXjXVX{.= = h.5X+X9X(   G.n.UX",
"UX3Xm.. a n.DXZXBXOXM 7 c.VXxXzXhXjXSX{.= = h.hXpXlX+XA . ^ 3XUX",
"UX,XE . . # d.CXZXSX5XM $ f.SXcXjXSX[., = (.mXrXfX/.3   . t Y.UX",
"v.Y.; . X . X k.DXHXGX&Xb $ f.GXJX[., , ~.mXdXgX/.a . X X   V.oX",
"+XZ.  o X X o # k.DXGXKX5Xx $ j.{.2 = ~.mXiXgX X1 . X X X   ' 4X",
"4XM.  o X X X o # d.VXJXLX6XD # = v /.SXjXfX^.a   # X X X . ) 2X",
"1Xm.  X X X X X   d 0XLXLXLX%.. . ~ FXAXjXeXT . X X X X X   ^ 2X",
"1Xm.  o X X X . 1 /.FXJXLX.Xx 2 2 2 d.CXcXfX4XC . X X # X   ^ %X",
"oXZ.  o X X . 1 XXFXJXJX}., 8 _.6Xb O i.VXkXBX4XA . X X X   ` &X",
"v.Y.; . X o 1 /.GXHXJX{.7 9 ^.FXGXOXx O a.VXkXgX'.A . o o   3..X",
"UX,XE O . 1 /.SXcXDX{.0 q /.FXcXxXSX&Xx O a.BXdXfX'.k . . r F.x.",
"UX%X1.  A 1XGXAXCX{.q c  XNXcXxXBXjXVX&Xv O i.bXlXnX9XT . W $XUX",
"UXl.U.r D 5X#X@Xj.d b  XSXjXBX#X[.BXkXVX&Xx O %.XX|.OX( o 3.Q.UX",
"UXUX).2.O 1 2 0 < Z {.MXdXBX*XG m [.gXuXvX].A O # 3 3 O P !.UXUX",
"UXUX#.U.K O & * , %.yXiXzX@X[ m c S R.0XuXbX%.O o # . e S.@.UXUX",
"UXUXUX+.=Xh + 2 8 $.yXfX7X[ V F M p b R.fXfX$.o X O % 5.%.UXUXUX",
"UXUXUXUX%.-Xh + 7 $.bX@X] B F F F m 8 b [.vXs.# O % 5.*.UXUXUXUX",
"UXUXUXUXUX$.;XU + R XX] N B F F S n x , b ~.+.O J e.9.UXUXUXUXUX",
"UXUXUXUXUXUX@.S.<.L f 6 d M M M n m x 1 + @ y =.8.&.UXUXUXUXUXUX",
"UXUXUXUXUXUXUX .4.8.;.I y i 9 6 - - > u L -.6.q. .UXUXUXUXUXUXUX",
"UXUXUXUXUXUXUXUXUXO.T.D.7.,.>.:.:.>.,.7.w.E.@.UXUXUXUXUXUXUXUXUX",
"UXUXUXUXUXUXUXUXUXUXUXUXl.W.E.0.9.E.W.z.UXUXUXUXUXUXUXUXUXUXUXUX"
};
