/* XPM */
static char *_d22212a036e435bea14371352cf3a8b[] = {
/* columns rows colors chars-per-pixel */
"16 16 181 2 ",
"   c black",
".  c #000400",
"X  c #000601",
"o  c #080000",
"O  c #0C0404",
"+  c #0E0A09",
"@  c #0F0B0F",
"#  c #001103",
"$  c #00120A",
"%  c #00110C",
"&  c #00110D",
"*  c #1E1311",
"=  c #1E1117",
"-  c #13171C",
";  c #14151C",
":  c #1E171F",
">  c #231914",
",  c #231618",
"<  c #231B19",
"1  c #231B1A",
"2  c #11220A",
"3  c #0D2016",
"4  c #002019",
"5  c #00221B",
"6  c #182D15",
"7  c #1F2B1E",
"8  c #003111",
"9  c #003B13",
"0  c #163F1E",
"q  c #181726",
"w  c #181F26",
"e  c #221E2A",
"r  c #182B22",
"t  c #1D2823",
"y  c #00352E",
"u  c #003932",
"i  c #24222D",
"p  c #24252D",
"a  c #232F29",
"s  c #302520",
"d  c #302624",
"f  c #322828",
"g  c #253124",
"h  c #262A31",
"j  c #252B36",
"k  c #222D39",
"l  c #282A3C",
"z  c #312B30",
"x  c #352F30",
"c  c #312D37",
"v  c #3B2D35",
"b  c #25303B",
"n  c #27323F",
"m  c #29303C",
"M  c #403538",
"N  c #024E27",
"B  c #00462C",
"V  c #1B4F30",
"C  c #2C3946",
"Z  c #2E3A48",
"A  c #343A45",
"S  c #333E46",
"D  c #3A3B46",
"F  c #323D48",
"G  c #373C48",
"H  c #31384E",
"J  c #363D4D",
"K  c #004945",
"L  c #024B44",
"P  c #134543",
"I  c #105340",
"U  c #0F5254",
"Y  c #1F5656",
"T  c #364249",
"R  c #3B4449",
"E  c #3A414E",
"W  c #3C4752",
"Q  c #364856",
"!  c #3B4855",
"~  c #3A4957",
"^  c #3D4C5C",
"/  c #146259",
"(  c #256F4D",
")  c #257C5E",
"_  c #3E7459",
"`  c #3F765C",
"'  c #3F5764",
"]  c #126065",
"[  c #317C6D",
"{  c #2E6973",
"}  c #357479",
"|  c #327D79",
" . c #3F7B7B",
".. c #414B55",
"X. c #454B57",
"o. c #404E5A",
"O. c #465865",
"+. c #465967",
"@. c #435C68",
"#. c #465D6A",
"$. c #415A6C",
"%. c #496474",
"&. c #4A6B7D",
"*. c #417B71",
"=. c #4F856D",
"-. c #4A8770",
";. c #498577",
":. c #528774",
">. c #1E7481",
",. c #357482",
"<. c #317887",
"1. c #337886",
"2. c #327A89",
"3. c #287A93",
"4. c #287A96",
"5. c #357B97",
"6. c #347C9B",
"7. c #63739D",
"8. c #6B7D9D",
"9. c #707EA7",
"0. c #22808D",
"q. c #3F8380",
"w. c #3B8293",
"e. c #3C8291",
"r. c #33819A",
"t. c #37829A",
"y. c #36839F",
"u. c #388598",
"i. c #388699",
"p. c #3E89A7",
"a. c #4A8B8F",
"s. c #458790",
"d. c #468B9F",
"f. c #4D96AE",
"g. c #5197A8",
"h. c #6587A2",
"j. c #758AA9",
"k. c #6F94AD",
"l. c #6C94AF",
"z. c #7199AE",
"x. c #749BAE",
"c. c #72A1BD",
"v. c #74A6BF",
"b. c #7AA6BC",
"n. c #77A7C2",
"m. c #7CABC4",
"M. c #7CB2C1",
"N. c #79B0CB",
"B. c #87B6CF",
"V. c #85BCDB",
"C. c #82C6D7",
"Z. c #83C1DD",
"A. c #8FC7E9",
"S. c #8ECDED",
"D. c #95D4EA",
"F. c #92D4F1",
"G. c #99D4F3",
"H. c #91D8F4",
"J. c #95D5FF",
"K. c #97D8F8",
"L. c #93DDFD",
"P. c #99DDFF",
"I. c #9EDCFF",
"U. c #9BE4FF",
"Y. c #9EE6FF",
"T. c #A3E7FF",
"R. c #A5EEFF",
"E. c #A1F1FC",
"W. c #A3F3FF",
"Q. c #A5F2FF",
"!. c #A3F5FF",
"~. c #A1F6FF",
"^. c #A8F7FF",
"/. c #A7FEFF",
"(. c #A7FFFF",
"). c #ADFBFF",
"_. c #AAFDFF",
"`. c #A8FEFF",
"'. c #ADFFFF",
"]. c #AFFFFF",
"[. c None",
/* pixels */
"[.[.[.[.[.r.i.2.1.u.t.[.[.[.[.[.",
"[.[.[.6.0.Y r a t 3 P >.5.[.[.[.",
"[.[.4.L R j.M s > , 8.S u 3.[.[.",
"[.p.L   z P.V.x 1 c.I.h   y y.[.",
"[.] F n.^ X.Y.N.v.R.o.n l.J U [.",
"f.5 : S.`.~ D W.`.W b K.A.i $ d.",
"w.&   @ M.~.@.O.#.Q F.m.-   X ,.",
"1.X O   q ].(.o   H.).k   +   { ",
"e.&   ; C.W...%.&.A D.Z.w   X } ",
"g.4 e L.^.G ! `.`.O.p G.J.l # a.",
"[./ C z.E O.!.b.x.Q.$.j h.C I [.",
"[.s.B   c U.B.f * l.T.m   8 s.[.",
"[.[.| N T 9.v d < = 7.Z 9 [ [.[.",
"[.[.[. .) V 6 g 7 2 0 ( *.[.[.[.",
"[.[.[.[.[.;.-.` _ =.:.[.[.[.[.[.",
"[.[.[.[.[.[.[.[.[.[.[.[.[.[.[.[."
};
