/* XPM */
static char *_3f458dc8ca94200b26e233d3e1255a6[] = {
/* columns rows colors chars-per-pixel */
"64 64 256 2 ",
"   c #050101",
".  c #0B0101",
"X  c #0D0C0C",
"o  c #010E0C",
"O  c #140101",
"+  c #1B0102",
"@  c #120E0E",
"#  c #1A060B",
"$  c #10100F",
"%  c #0E0F10",
"&  c #190912",
"*  c #0F1111",
"=  c #121213",
"-  c #131619",
";  c #16191A",
":  c #1C1C1D",
">  c #191718",
",  c #0F100F",
"<  c #220001",
"1  c #2B0606",
"2  c #270619",
"3  c #281618",
"4  c #320713",
"5  c #0B271A",
"6  c #1C1E22",
"7  c #171D22",
"8  c #271823",
"9  c #240B22",
"0  c #1D2124",
"q  c #1E2329",
"w  c #08362D",
"e  c #232425",
"r  c #24262A",
"t  c #25292D",
"y  c #2C2C2C",
"u  c #272729",
"i  c #2B2D32",
"p  c #2F2E3A",
"a  c #262C31",
"s  c #322E38",
"d  c #2D3134",
"f  c #293539",
"g  c #333333",
"h  c #33343B",
"j  c #35393D",
"k  c #39393A",
"l  c #39353B",
"z  c #243227",
"x  c #154C2F",
"c  c #21422B",
"v  c #107036",
"b  c #353542",
"n  c #393644",
"m  c #3C3C43",
"M  c #3D3B4B",
"N  c #373A43",
"B  c #3D2D54",
"V  c #3C3F64",
"C  c #43224C",
"Z  c #423C49",
"A  c #4A2955",
"S  c #542A59",
"D  c #48345C",
"F  c #52325F",
"G  c #483E64",
"H  c #563763",
"J  c #592D62",
"K  c #623E6F",
"L  c #4E1D55",
"P  c #004742",
"I  c #0D544F",
"U  c #3E4246",
"Y  c #3A4A5B",
"T  c #026B4F",
"R  c #394868",
"E  c #3B5577",
"W  c #3C506E",
"Q  c #08736E",
"!  c #3C6C78",
"~  c #43434C",
"^  c #43464A",
"/  c #4C4B5D",
"(  c #484754",
")  c #514C59",
"_  c #525259",
"`  c #444D64",
"'  c #4C4A65",
"]  c #56496B",
"[  c #48556A",
"{  c #535264",
"}  c #58596C",
"|  c #485976",
" . c #575A78",
".. c #504C72",
"X. c #66456C",
"o. c #675678",
"O. c #75577A",
"+. c #6C4C77",
"@. c #49637B",
"#. c #58667B",
"$. c #517972",
"%. c #63657B",
"&. c #159539",
"*. c #088950",
"=. c #06B34C",
"-. c #029568",
";. c #38977B",
":. c #4A9E7D",
">. c #18D354",
",. c #00C474",
"<. c #09F174",
"1. c #2BF265",
"2. c #36F374",
"3. c #31DA6D",
"4. c #49EA7D",
"5. c #376B8B",
"6. c #327695",
"7. c #3A5C80",
"8. c #745B86",
"9. c #6C5A82",
"0. c #4A6883",
"q. c #586885",
"w. c #4C7A99",
"e. c #5B7593",
"r. c #5C7C9A",
"t. c #567896",
"y. c #56718D",
"u. c #646C82",
"i. c #686987",
"p. c #736382",
"a. c #726C88",
"s. c #6A738C",
"d. c #64748A",
"f. c #677794",
"g. c #606E94",
"h. c #497EA2",
"j. c #5D6F93",
"k. c #019B95",
"l. c #088E88",
"z. c #2CB288",
"x. c #3191AC",
"c. c #00BAB4",
"v. c #02AEA7",
"b. c #2BA4BD",
"n. c #21A086",
"m. c #59809B",
"M. c #57829B",
"N. c #4C8A8F",
"B. c #62818B",
"V. c #52B184",
"C. c #4C85A8",
"Z. c #558AAB",
"A. c #5888A7",
"S. c #5996B7",
"D. c #5291B3",
"F. c #7A9BB8",
"G. c #6495B1",
"H. c #4DABB6",
"J. c #76A1BD",
"K. c #02FE8C",
"L. c #03FB98",
"P. c #0EED8D",
"I. c #00C5BC",
"U. c #0DDAB8",
"Y. c #08F3AE",
"T. c #26D68B",
"R. c #2BB3C9",
"E. c #1EBBCF",
"W. c #599EC0",
"Q. c #619FC2",
"!. c #57A3C6",
"~. c #5CB5D8",
"^. c #4FAFCC",
"/. c #65A5C6",
"(. c #79A8C7",
"). c #67B9DB",
"_. c #79BCDD",
"`. c #78B6D8",
"'. c #74ACD2",
"]. c #67BFE3",
"[. c #7CBDE2",
"{. c #00C6C3",
"}. c #01D9D6",
"|. c #12D1D0",
" X c #31D2D2",
".X c #05F6CF",
"XX c #19D5E5",
"oX c #31D0E3",
"OX c #01EAE6",
"+X c #02F7EB",
"@X c #19E7F3",
"#X c #02FEFF",
"$X c #08F6F8",
"%X c #19F6FD",
"&X c #0FEBF3",
"*X c #29ECF7",
"=X c #24ECCF",
"-X c #7CC1DE",
";X c #6EC1DF",
":X c #68C5E8",
">X c #7CC5E3",
",X c #7CCCEA",
"<X c #78C9E8",
"1X c #7AD2EE",
"2X c #6DD6F7",
"3X c #76D4F2",
"4X c #79DBF6",
"5X c #6BCDF1",
"6X c #7BE1FC",
"7X c #5EC1E0",
"8X c #53CF83",
"9X c #849CBA",
"0X c #8B95AE",
"qX c #86A1BD",
"wX c #85A5C3",
"eX c #83ADCB",
"rX c #8CADCB",
"tX c #87A8C5",
"yX c #8BB3CE",
"uX c #86B3CE",
"iX c #85B4D2",
"pX c #86BAD5",
"aX c #8ABBD5",
"sX c #85BCDA",
"dX c #89B9D6",
"fX c #92BAD5",
"gX c #89B1D0",
"hX c #919EC1",
"jX c #8CC3DB",
"kX c #8DC8DE",
"lX c #86C0DA",
"zX c #91C5DC",
"xX c #93CADE",
"cX c #8DCBE2",
"vX c #84CBE8",
"bX c #93CCE3",
"nX c #94C9E3",
"mX c #83D2EC",
"MX c #8DD3EA",
"NX c #8DD3E8",
"BX c #93D4EC",
"VX c #94DAED",
"CX c #95D2E6",
"ZX c #87DBF5",
"AX c #95DDF3",
"SX c #97DBF1",
"DX c #94E1EF",
"FX c #87E7FD",
"GX c #94E3F3",
"HX c #9BE4F5",
"JX c #9AECFE",
"KX c #97E9FA",
"LX c #9AF6FE",
"PX c #8EF8FF",
"IX c #A0FAFE",
"UX c None",
/* pixels */
"UXUXUXUXUXUXUXUXUXUXUXUXUXUXUXUXUXUXUXUXUXUXUXUXUXUXUXUXUXUXUXUXUXUXUXUXUXUXUXUXUXUXUXUXUXUXUXUXUXUXUXUXUXUXUXUXUXUXUXUXUXUXUXUX",
"UXUXUXUXUXUXUXUXUXUXUXUXUXUXUXUXUXUXUXUXUXUXUXUXUXUXj.e.g.f.s. .| i.g.g.g.y.UXUXUXUXUXUXUXUXUXUXUXUXUXUXUXUXUXUXUXUXUXUXUXUXUXUX",
"UXUXUXUXUXUXUXUXUXUXUXUXUXUXUXUXUXUXUXUXUXUX0.0.q.9. ...0.w.h.6.6.6.h.y. .o.o. .0.0.UXUXUXUXUXUXUXUXUXUXUXUXUXUXUXUXUXUXUXUXUXUX",
"UXUXUXUXUXUXUXUXUXUXUXUXUXUXUXUXUXUXUXE @...] @.C.R.@X&X$X#X+X$X$XOX$X$X&X@XoXb.y...] | 7.UXUXUXUXUXUXUXUXUXUXUXUXUXUXUXUXUXUXUX",
"UXUXUXUXUXUXUXUXUXUXUXUXUXUXUXUXUXE W G ..x.XX%X$X}.v.l.Q I j c c j I I Q k.{.OX&X@XR.0.H ..E UXUXUXUXUXUXUXUXUXUXUXUXUXUXUXUXUX",
"UXUXUXUXUXUXUXUXUXUXUXUXUXUXUXE R D E R.$X+Xc.Q f 1 1 1 1 4 3 4 8 3 3 1 1 < < : I k.}.%XXX5.D V | UXUXUXUXUXUXUXUXUXUXUXUXUXUXUX",
"UXUXUXUXUXUXUXUXUXUXUXUXUXUXE D ` b.$XOXl.u < 1 3 u y y y y y y y y u u e e 8 3 < < # I c.$XXXE A W UXUXUXUXUXUXUXUXUXUXUXUXUXUX",
"UXUXUXUXUXUXUXUXUXUXUXUX7.W A 6.$X&XQ 4 4 8 y y t y y y y y y y y g y u u e 0 : : : > + + f c.#Xb.V G 7.UXUXUXUXUXUXUXUXUXUXUXUX",
"UXUXUXUXUXUXUXUXUXUXUXE ' G E.#Xl.3 1 U / ^ k g y z g y g y y y g y y y u e e : : e d N N 3 + I OX&X| A | UXUXUXUXUXUXUXUXUXUXUX",
"UXUXUXUXUXUXUXUXUXUXE D E %X$Xf < 3 l q.^.#.( k g g g g g g g g g y y y e e e 3 e d ( D.h.s : + # v.#Xx.F W UXUXUXUXUXUXUXUXUXUX",
"UXUXUXUXUXUXUXUXUXE B 5.#XI.@ + : u k m.5X~.i.( U g g g g g g g g y y y u e 0 e h / D.5XG.b : > O O Q #Xb.A R UXUXUXUXUXUXUXUXUX",
"UXUXUXUXUXUXUXUXE C 5.#Xk.+ # : : y k m.'.(.~.u.) ^ k k k k k g g g y y u e u j / D.).uXZ.b : = > $ O w #XE.C V UXUXUXUXUXUXUXUX",
"UXUXUXUXUXUXUXE C 5.#Xl.+ # : : : u U m.-X0X`.).%._ ^ k k k g g g g y y u y j / S.:XhXiXZ.n 6 = $ $ = O 5 #XE.C E UXUXUXUXUXUXUX",
"UXUXUXUXUXUXE D E #Xk.+ & ; : : : u k m.-X9XqX-X7Xd._ ^ k k k g g y y y y k ) S.).9X9X'.Z.n : = > * * * O 5 #Xb.C E UXUXUXUXUXUX",
"UXUXUXUXUXUXR B #Xc.+ $ ; > : e : y k M.`.qX(.rX>X).s._ ^ k k g g y y g U { S.].qX9XF.(.S.n : = > = $ $ $ O P #X6.C UXUXUXUXUXUX",
"UXUXUXUXUX@.C XXOXO O ; = > : : : u k M.mXyXeXeXyXmX).s._ U k g g g g U _ D.;XwXqX(.9XsXS.s > = $ $ $ * X X O Q #XV ' UXUXUXUXUX",
"UXUXUXUXy.F x.#X5 O = $ = > ; : : e h } ;XMXuXeX(.yXmX).u._ U g g g ^ { S.<XqXF.F.wXeX<X0.p > $ $ $ X X X X   . {.@XS #.UXUXUXUX",
"UXUXUXUXq...#XQ O - 7 6 6 0 e e u u d ^ #.>XMXuXeXuXyXvX].u.) m g ^ { S.1XzXaXpXgXaX1Xt.n r = > ; ; - - * - - . X #Xx.X.UXUXUXUX",
"UXUXUXj.X.oXOX. > p s n n n M Z k h d h ~ q.<XMXeXeXuXfX,X~.#._ / { S.1XzXdXpXiXzX4Xr.M a 7 6 t s n h h b p r 7 . Q $XX.q.UXUXUX",
"UXUXUXu.0.#XP O u 5.D.A.Z.Z.Z.D.M./ k d k ~ u.>XvXgXjXlXfXmX).u.%.S.4XbXaXaXuXzXmXr.M a : r l 0.C.C.C.h.h.h.h.p @ . OXR.+.UXUXUX",
"UXUXe.X.oX}.  X r 7.2XZX[.,XmX[.3XQ./ m d j ~ q.>XSXjXjXaXnXPX).Q.1XzXjXkXaXxXZXm.M a 7 e l w.:X[.`.'.'.eX2XD.a - . T %Xo.y.UXUX",
"UXUXj.#.#XI . * 7 s q.>XzXfXfXrXfX3X!.{ m d k ~ q.vXGXzXpXaXbXvX,XaXaXlXlXbXZXm.M i 0 t Z w.7XyXhXwX9XhX[.Z.n 6 % X   }.H.o.UXUX",
"UXUXO.^.OX  . X X 7 p  .,XBXgXsXdXfX6X!.{ m d g ~  .>XAXaXjXlXaXxXjXyXaXbXZXt.M y 6 t M w.:XyXtX(.9XwX<XZ.n q % X X . l.*X+.d.UX",
"UXf.O.%Xk.. X X X % 7 p @.,XBXjXcXjXnXFX!.{ m d f U  .>XAXcXNXsXjXcXlXbXZXr.Z i 0 t Z w.:XaXtX(.wXtX,XZ.B 0 % X X X   w &Xe.d.UX",
"UXf.g.$XP . X X X @ @ 7 p @.vXSXjXcXkXSXFX/.' U i d m  .-XKXkXcXlXjXSXZXr.M d 0 a M w.2XcXtXeXtXrX1XZ.n q $ X @ X X .   {.^.O.UX",
"UXp.H.OX    X X X X $ $ 6 p @.mXBXkXcXcXVXKX/.' N y a U } >XJXcXkXBXZXt.~ d e t M M.:XbXSXeXeXtX,XZ.n q $ X X X X X X . k.*XO.UX",
"UXO.oX{.  X X   X X , @ $ 6 p @.mXAXNXcXcXVXPXQ./ N t y m ..>XJXHXFXe.M d e a Z M.:XzXyXeXuXyX,XZ.M r = , X X X X X X   T @Xp.d.",
"f.8.*Xk.    X X X X , * % = 6 p q.ZXJXcXNXDXGXPX!./ j r y n [ ,XKXj.M d 0 a M t.5XkXtXiXeXaXZXG.n q $ X * X % X X X X   w &Xf.s.",
"f.a.%XQ   o X X X X $ % $ $ = 6 p q.MXHXBXBXVXHXPXQ./ j q a j [ 0.M d 0 a Z w.2XxXaXaXuXfXZXZ.M r = @ * $ X X X X X X   o }.G.a.",
"f.a.%XI   X X X X X X % $ $ $ = 6 p 0.ZXJXBXVXDXHXPXQ.( h q r y y t r a n t.2XbXaXlXiXaXZXZ.M t - X $ X % X X X X X X     {.!.a.",
"a.f.%XP   . X o X X X X % $ $ $ % q p 0.ZXIXVXDXGXHXPXQ.( f 6 : : : a N t.4XVXzXlXaXzXvXZ.M t - $ $ $ % % X X X X X X     I.^.p.",
"f.f.&XP   X X . X X X X X X $ $ X % t M g.ZXIXKXGXHXJXLXS.d : > > > e 0.6XSXzXkXjXaXvX/.' b - $ $ $ % $ X X X X   X X .   c.~.p.",
"s.r.&XP   X   X X X X X @ X = X X = i Y G.ZXKXGXGXGXIXJXt.p : > > : t [ <XHXbXkXkXzXvX~.} h : % $ $ $ $ X X X X X X .     c.^.p.",
"s.f.&XP   X o X X X $ X X = $ $ - t M Z.FXJXDXDXDXIXJXe.N i 6 0 e 6 r h | -XAXzXkXbXjXmX~.` s > $ $ $ % @ X X X X X X X   c.^.a.",
"f.a.%XI   X X X X X X % % = $ = t M Z.FXHXDXAXDXIXJXe.M i e p l l f r r l | _.MXaXiXjXyXKX7XR s ; $ $ % X % X X X   X     I.H.a.",
"f.p.%XQ   .   X X X = X $ $ - r M Z.FXGXNXDXBXJXJXr.M d q d Z w.S./ h q r l | ].GXuXkXlXyXFX^.[ i ; X $ % X @ X X X X . o U.G.a.",
"f.O.*Xk.. X . X X X X = X = r M Z.FXSXNXBXNXLXKXr.M f e h Z t.4XFXS./ j e r h | _.SXzXzXuXfXvX~.` t - X X % X X X X X . w |.d.d.",
"f.O.oX{.  X X X X X % @ - r M Z.FXSXMXcXVXJXKXr.M f y f ~ t.3XVXbXFXW.' j e r s | >XDXjXlXaXyX`.!.' a - X X X X X X X . T =Xp.s.",
"UXO.Q.OX    X X X % % = r M C.3XCXcXNXzXIXLXr.Z h u h ~ t.3XGXbXkXbXFXW./ j e r h | -XVXaXaXsXrX[.^.` a - X X X X X X . -.=XO.UX",
"UXs.s.$XP   X X X X = r Z C.6XbXzXkXcXBXZXr.Z j y j ( r.4XGXxXNXcXcXCXZX!./ h e e j | -XBXyXdXsXgX[.!.` i - X X X X X . c.H.p.UX",
"UXB.O.*Xk.  X X % % r M h.6XnXzXsXdXHXFXr.( h i k ~ t.4XKXbXkXpXMXBXjXCXFXW.) h 0 r h | -XMXgXyXiXhX`.!.` i - X X X . 5 .Xs.a.UX",
"UXUXO.H..X  . X % r M C.3XCXgXaXjXBXZXr.Z m i N ) r.4XBXCXNXkXbXNXjXkXzXxX1XW.) h 6 0 h | _.vXrXgX'.wX[.!.` r - X X . *.=X+.d.UX",
"UXUXs.i.+XI . X q M Z.1XfXnXfXgXSXFXe.~ k i k ) A.3XDXyXpXNXbXmXmXcXaXlXlXzX1XW./ h 6 0 h [ ).MXrXtXtXhX`.!.' a , .   Y.H.8.UXUX",
"UXUXs.O. XU.. @ u 5.2XcX`.vX-XvX,Xe.Z j i m ) A.2XCXxXlXuXkXKXJ.m.MXDXkXcXkXxX1X!./ g 0 0 p ../.[.[.`.'.eX5Xb.p - . T Y.O.s.UXUX",
"UXUXUXi.q.+Xx   q Y 0.0.0.0.#.y.| U h a N ) A.1XcXxXjXjXkXGXF.} } f.ZXVXjXzXjXzX3X!.` p 7 7 i Y 0.0.0.0.@.@.W a @ o P.H.+.UXUXUX",
"UXUXUXd.X. XY.  = 0 r y i a g g d y a U ) A.2XCXuXjXjXjXFXJ.{ ^ ^ / e.,XjXqXiXlXyX3X!.' p 6 : 0 9 q q q 0 0 : ; O T Y.X.%.UXUXUX",
"UXUXUXUX .] +XT O * = > ; : : : : e g ( M.:XbXzXpXeXzXGXJ.{ ^ k g k ( e.1XyX9XuXdXgX<XW.( t > = - = & % X @ X O X L.N.X.UXUXUXUX",
"UXUXUXUXu.] ;.+X5 + = = = = : : : e j #.:XdXtXjXlXtX,XJ.} ( k g g g m ~ e.;XtXF.eXgXrX<Xh.p - = @ % X X X X X O ,.Y.J #.UXUXUXUX",
"UXUXUXUXUX .S U.Y.+ # ; = ; : : e y k m.vXtXJ.dXzX1XJ.} _ k k g g g d k ~ y.<XeX9XeXtXsXS.h : = - = $ @ $ X O v Y.` ..UXUXUXUXUX",
"UXUXUXUXUXUX' F .X,.O $ ; > : : : u k m.`.tXF.yXZXJ.#._ U k k g g g y y k ^ t.;XiXtXeXiXG.b : = = = = % $ . w L.! F UXUXUXUXUXUX",
"UXUXUXUXUXUX| D ` .X-.# @ : : : : y k m.`.qXqX1X(.} _ k k k k g g g y y y g Z y.<XdXqX`.Z.b : = = = $ % . 5 L.;.A [ UXUXUXUXUXUX",
"UXUXUXUXUXUXUX` A ! .X*.< > : : : u m M.(.qX>XJ.} ^ U k k k k g g y y y t r y ^ j.<XrXeXZ.b : = = = = O 5 K.z.L ` UXUXUXUXUXUXUX",
"UXUXUXUXUXUXUXUX[ A ! .X-.+ & e : z m r.'.jX/.{ ^ U k k g k g g g g y y e e e y n t._.`.A.b : = - = O 5 K.z.L ` UXUXUXUXUXUXUXUX",
"UXUXUXUXUXUXUXUXUXY A @.Y.,.# < 6 r l t.2XG.{ ^ k g g g g g g g g y y y y e e e a M y.5XS.h : - # + v K.z.F ` UXUXUXUXUXUXUXUXUX",
"UXUXUXUXUXUXUXUXUXUX` H } Y.K.w < 3 k @.M.{ ~ h g g g g g g g y g y y u u e e : : i n 0.0.f : + O =.K.;.J ` UXUXUXUXUXUXUXUXUXUX",
"UXUXUXUXUXUXUXUXUXUXUX[ ] ] z.L.*.2 2 s m U s y z y g y g y y g y y y y u e e 6 : 6 t p i 9 + x <.P.[ J } UXUXUXUXUXUXUXUXUXUXUX",
"UXUXUXUXUXUXUXUXUXUXUXUX@.' F ! P.P.v 9 4 8 y y y y y y y y y y y y y u e e e : : : > # # 5 =.<.z.F ' } UXUXUXUXUXUXUXUXUXUXUXUX",
"UXUXUXUXUXUXUXUXUXUXUXUXUXUX[ F ' n.K.<.*.e 2 4 8 u u y u y y z y y u u e 8 : 3 & # & x =.<.T.} S ' UXUXUXUXUXUXUXUXUXUXUXUXUXUX",
"UXUXUXUXUXUXUXUXUXUXUXUXUXUXUX[ / F { z.P.<.=.v t 9 4 4 2 3 8 8 8 3 9 4 2 1 # : x &.>.2.8X$.H G ` UXUXUXUXUXUXUXUXUXUXUXUXUXUXUX",
"UXUXUXUXUXUXUXUXUXUXUXUXUXUXUXUXUX[ ..X.o.:.T.<.<.>.=.&.v c c c c c c v v &.=.1.1.2.V.%.X.] [ UXUXUXUXUXUXUXUXUXUXUXUXUXUXUXUXUX",
"UXUXUXUXUXUXUXUXUXUXUXUXUXUXUXUXUXUXUX}  .+.+.o.B.8X4.2.2.1.1.1.1.1.1.1.4.4.8XV.%.o.9. . .UXUXUXUXUXUXUXUXUXUXUXUXUXUXUXUXUXUXUX",
"UXUXUXUXUXUXUXUXUXUXUXUXUXUXUXUXUXUXUXUXUXUXq.u.%.8.8.9.%.d.B.$.$.$.B.a.%.8.8.8.u.%.UXUXUXUXUXUXUXUXUXUXUXUXUXUXUXUXUXUXUXUXUXUX",
"UXUXUXUXUXUXUXUXUXUXUXUXUXUXUXUXUXUXUXUXUXUXUXUXUXUXi.u.i.i.%.] ] o.i.i.%.a.UXUXUXUXUXUXUXUXUXUXUXUXUXUXUXUXUXUXUXUXUXUXUXUXUXUX",
"UXUXUXUXUXUXUXUXUXUXUXUXUXUXUXUXUXUXUXUXUXUXUXUXUXUXUXUXUXUXUXUXUXUXUXUXUXUXUXUXUXUXUXUXUXUXUXUXUXUXUXUXUXUXUXUXUXUXUXUXUXUXUXUX"
};
